<svg xmlns="http://www.w3.org/2000/svg" width="256" height="256" viewBox="0 0 100 100"><rect width="100" height="100" rx="20" fill="#000000"></rect><path fill="#fff" d="M41.59 59.37L45.83 59.37Q44.98 67.23 40.21 71.40Q35.44 75.57 27.51 75.57L27.51 75.57Q21.97 75.57 17.72 72.80Q13.46 70.03 11.14 64.95Q8.81 59.88 8.78 53.35L8.78 53.35L8.78 46.89Q8.78 40.26 11.10 35.13Q13.43 30.00 17.79 27.22Q22.14 24.43 27.82 24.43L27.82 24.43Q35.82 24.43 40.45 28.76Q45.08 33.08 45.83 40.70L45.83 40.70L41.59 40.70Q40.02 28.02 27.82 28.02L27.82 28.02Q21.05 28.02 17.03 33.08Q13.02 38.14 13.02 47.06L13.02 47.06L13.02 53.14Q13.02 61.76 16.93 66.88Q20.84 72.01 27.51 72.01L27.51 72.01Q34.11 72.01 37.46 68.85Q40.81 65.69 41.59 59.37L41.59 59.37ZM69.65 74.88L56.05 74.88L56.05 25.12L69.96 25.12Q76.08 25.12 80.93 27.90Q85.79 30.69 88.50 35.88Q91.22 41.08 91.22 47.71L91.22 47.71L91.22 52.29Q91.22 58.96 88.52 64.12Q85.82 69.28 80.92 72.08Q76.01 74.88 69.65 74.88L69.65 74.88ZM70.03 28.71L60.25 28.71L60.25 71.33L69.69 71.33Q77.55 71.33 82.30 66.12Q87.05 60.90 87.05 52.02L87.05 52.02L87.05 47.64Q87.05 39.06 82.37 33.90Q77.69 28.74 70.03 28.71L70.03 28.71Z"></path></svg>